HIERARCHY
ROOT SimulationBone
{
	OFFSET 0.000000 0.000000 0.000000
	CHANNELS 6 Xposition Yposition Zposition Zrotation Yrotation Xrotation 
	JOINT Hips
	{
		OFFSET 0.000000 0.000000 0.000000
		CHANNELS 6 Xposition Yposition Zposition Zrotation Yrotation Xrotation 
		JOINT RightUpLeg
		{
			OFFSET 0.103459 1.857831 10.548505
			CHANNELS 3 Zrotation Yrotation Xrotation
			JOINT RightLeg
			{
				OFFSET 43.500004 -0.000023 -0.000004
				CHANNELS 3 Zrotation Yrotation Xrotation
				JOINT RightFoot
				{
					OFFSET 42.372204 0.000019 -0.000006
					CHANNELS 3 Zrotation Yrotation Xrotation
					JOINT RightToe
					{
						OFFSET 17.300005 0.000001 -0.000002
						CHANNELS 3 Zrotation Yrotation Xrotation
						End Site
						{
							OFFSET 0.000000 0.000000 0.000000
						}
					}
				}
			}
		}
		JOINT LeftUpLeg
		{
			OFFSET 0.103461 1.857828 -10.548505
			CHANNELS 3 Zrotation Yrotation Xrotation
			JOINT LeftLeg
			{
				OFFSET 43.500046 -0.000019 0.000006
				CHANNELS 3 Zrotation Yrotation Xrotation
				JOINT LeftFoot
				{
					OFFSET 42.372261 -0.000015 0.000011
					CHANNELS 3 Zrotation Yrotation Xrotation
					JOINT LeftToe
					{
						OFFSET 17.299999 -0.000003 0.000002
						CHANNELS 3 Zrotation Yrotation Xrotation
						End Site
						{
							OFFSET 0.000000 0.000000 0.000000
						}
					}
				}
			}
		}
		JOINT Spine
		{
			OFFSET 6.901964 -2.603731 0.000000
			CHANNELS 3 Zrotation Yrotation Xrotation
			JOINT Spine1
			{
				OFFSET 12.588102 -0.000003 0.000000
				CHANNELS 3 Zrotation Yrotation Xrotation
				JOINT Spine2
				{
					OFFSET 12.343204 0.000002 0.000000
					CHANNELS 3 Zrotation Yrotation Xrotation
					JOINT Neck
					{
						OFFSET 25.832891 -0.000013 0.000001
						CHANNELS 3 Zrotation Yrotation Xrotation
						JOINT Head
						{
							OFFSET 11.766613 0.000015 -0.000000
							CHANNELS 3 Zrotation Yrotation Xrotation
							End Site
							{
								OFFSET 0.000000 0.000000 0.000000
							}
						}
					}
					JOINT RightShoulder
					{
						OFFSET 19.745911 -1.480375 6.000106
						CHANNELS 3 Zrotation Yrotation Xrotation
						JOINT RightArm
						{
							OFFSET 11.284125 -0.000012 -0.000024
							CHANNELS 3 Zrotation Yrotation Xrotation
							JOINT RightForeArm
							{
								OFFSET 33.000050 0.000007 0.000027
								CHANNELS 3 Zrotation Yrotation Xrotation
								JOINT RightHand
								{
									OFFSET 25.200005 0.000018 0.000002
									CHANNELS 3 Zrotation Yrotation Xrotation
									End Site
									{
										OFFSET 0.000000 0.000000 0.000000
									}
								}
							}
						}
					}
					JOINT LeftShoulder
					{
						OFFSET 19.746092 -1.480375 -6.000074
						CHANNELS 3 Zrotation Yrotation Xrotation
						JOINT LeftArm
						{
							OFFSET 11.284139 -0.000017 -0.000020
							CHANNELS 3 Zrotation Yrotation Xrotation
							JOINT LeftForeArm
							{
								OFFSET 33.000099 0.000021 0.000012
								CHANNELS 3 Zrotation Yrotation Xrotation
								JOINT LeftHand
								{
									OFFSET 25.199780 0.000137 0.000427
									CHANNELS 3 Zrotation Yrotation Xrotation
									End Site
									{
										OFFSET 0.000000 0.000000 0.000000
									}
								}
							}
						}
					}
				}
			}
		}
	}
}
MOTION
Frames: 9
Frame Time: 0.016667
-14.198553 0.000000 -95.570017 0.000000 90.698625 0.000000 2.155011 88.553032 -1.500645 97.465105 -7.317666 -179.180896 -178.144352 13.938991 -179.136860 -24.272378 -3.719544 -13.979476 90.869744 9.793869 1.918643 21.454557 0.003111 0.000019 157.720843 17.999106 -174.698836 -60.584187 -3.888521 -0.623451 83.893430 2.509507 9.190267 21.454555 -0.003092 -0.000001 7.833447 -2.900150 0.508183 5.638974 -5.821383 0.876148 5.319127 -5.816137 0.911404 6.115249 -10.276826 -11.983859 -12.324328 9.530901 -17.584845 167.924803 -80.375624 10.783470 17.775308 55.380760 33.386097 -64.472969 -13.306581 2.187102 12.417730 0.763575 41.223240 -163.530519 76.130062 18.254639 2.149232 -67.007056 -47.659149 -48.670540 19.157151 -1.984580 8.665299 10.641009 -13.907636 
-14.316148 0.000000 -95.612112 0.000000 90.763431 0.000000 2.184727 88.595968 -1.366124 97.536242 -7.136662 -179.258947 -177.981457 13.755311 -179.072015 -24.167992 -3.747496 -14.009102 90.868398 9.816554 1.939107 21.454561 0.003119 0.000019 157.930743 18.106974 -175.021310 -59.586072 -3.948031 0.312529 83.617083 1.561060 7.760854 21.454554 -0.003096 -0.000003 7.821606 -2.901618 0.494680 5.615955 -5.823579 0.849637 5.296099 -5.818493 0.884895 6.699826 -10.271465 -12.729270 -12.660412 10.062980 -18.516373 169.313941 -80.127225 9.383346 20.061218 56.605011 37.233427 -65.481699 -12.849294 2.190261 12.052651 4.135026 49.978006 -163.567932 75.801185 18.218791 4.726977 -67.984692 -51.018968 -50.466829 18.527702 -2.012133 11.046520 16.748250 -8.507375 
-14.404486 0.000000 -95.649432 0.000000 90.818936 0.000000 2.242756 88.604050 -1.256050 97.655300 -6.973305 -179.441888 -177.822828 13.581101 -179.208892 -24.185809 -3.753237 -13.990366 90.953981 9.798404 1.936290 21.454562 0.003116 0.000019 158.196962 18.179313 -175.652740 -58.460462 -3.988264 0.970642 83.457473 0.933856 6.962259 21.454553 -0.003096 -0.000002 7.825401 -2.903280 0.488904 5.623854 -5.826646 0.837798 5.303996 -5.821625 0.873077 7.119740 -10.430176 -13.454528 -12.844667 10.662549 -19.479488 169.952727 -79.743962 8.749066 22.600603 57.470972 41.643915 -66.607457 -12.164280 2.193172 12.274441 2.610957 43.132937 -162.576424 75.503571 19.236449 7.545494 -68.645987 -52.963251 -51.810382 18.352092 -2.034033 12.152691 20.834418 -6.431721 
-14.465412 0.000000 -95.682256 0.000000 90.865449 0.000000 2.319930 88.588410 -1.165721 97.799417 -6.834273 -179.692302 -177.667501 13.431905 -179.387262 -24.268255 -3.766372 -13.991971 91.087579 9.787411 1.908554 21.454560 0.003108 0.000019 158.490309 18.268841 -176.505946 -57.249622 -3.978233 1.344287 83.386846 0.592071 6.591678 21.454551 -0.003092 -0.000000 7.833721 -2.912683 0.492861 5.640307 -5.845685 0.844847 5.320442 -5.840616 0.880250 7.538912 -10.594323 -14.195628 -13.018981 11.256824 -20.458824 170.387245 -79.320298 8.323105 25.394206 58.043265 45.614356 -67.797030 -11.465619 2.195585 13.263956 -1.197503 30.219931 -160.928544 75.190165 20.927788 10.072949 -68.800594 -53.823073 -52.957573 18.265546 -2.061328 11.955572 23.191625 -6.945937 
-14.500775 0.000000 -95.710862 0.000000 90.903281 0.000000 2.407045 88.560181 -1.090487 97.946076 -6.726518 -179.973001 -177.515524 13.322415 -179.447060 -24.357708 -3.816647 -14.082598 91.230276 9.831615 1.854449 21.454560 0.003103 0.000019 158.780492 18.427096 -177.493763 -55.996181 -3.884654 1.428258 83.388242 0.496631 6.448551 21.454550 -0.003087 0.000001 7.835452 -2.937376 0.508555 5.642935 -5.895809 0.875005 5.323044 -5.890558 0.910718 8.116867 -10.600624 -14.985963 -13.322776 11.768448 -21.440768 171.114543 -78.946066 7.596961 28.434997 58.435518 48.137385 -68.999110 -10.967255 2.207127 14.528092 -4.648558 21.239554 -158.982992 74.815136 22.926829 11.791770 -68.245847 -53.936533 -54.158287 17.903157 -2.084362 10.824532 23.929090 -9.071381 
-14.512420 0.000000 -95.735527 0.000000 90.932741 0.000000 2.494650 88.529836 -1.026581 98.075137 -6.652648 179.754761 -177.371535 13.255524 -179.300378 -24.413354 -3.917316 -14.289256 91.351876 9.951546 1.778262 21.454561 0.003104 0.000018 159.044775 18.691669 -178.486174 -54.732950 -3.705024 1.249487 83.434958 0.598435 6.382852 21.454549 -0.003082 0.000001 7.822232 -2.980076 0.536439 5.614931 -5.982403 0.929497 5.294991 -5.976830 0.965733 8.950147 -10.362010 -15.837532 -13.825649 12.156270 -22.417955 172.436456 -78.685029 6.260823 31.550648 58.695010 48.641349 -70.167184 -10.777450 2.239615 14.328478 -6.347663 23.404242 -157.122838 74.396709 24.841341 12.494541 -66.888953 -53.777052 -55.585161 17.059113 -2.083454 9.331512 23.187482 -11.793782 
-14.502194 0.000000 -95.756529 0.000000 90.954139 0.000000 2.572403 88.505203 -0.973668 98.174928 -6.596653 179.536611 -177.256332 13.190198 -179.147734 -24.462830 -4.015122 -14.472339 91.457489 10.057747 1.706394 21.454562 0.003106 0.000017 159.297702 19.049309 -179.180300 -53.449183 -3.567154 0.956240 83.442842 0.812826 6.441950 21.454550 -0.003080 0.000000 7.796769 -3.024182 0.570721 5.562002 -6.072023 0.997417 5.242008 -6.066040 1.034192 9.904768 -10.115532 -16.694698 -14.328673 12.542036 -23.404560 174.045595 -78.513558 4.628076 33.789686 58.383758 48.178479 -71.266370 -10.583723 2.273554 12.932087 -7.103227 32.408154 -155.794195 74.186765 26.208443 12.875485 -65.138153 -54.029646 -57.124529 16.162985 -2.071948 7.937278 21.444863 -14.643507 
-14.471943 0.000000 -95.774147 0.000000 90.967784 0.000000 2.633439 88.490709 -0.931448 98.241710 -6.542092 179.405505 -177.184753 13.088221 -179.183446 -24.540653 -4.060555 -14.503004 91.558842 10.066887 1.661177 21.454561 0.003103 0.000017 159.563967 19.474793 -179.335250 -52.133460 -3.581210 0.695109 83.340051 1.054398 6.685322 21.454551 -0.003082 -0.000001 7.765058 -3.053777 0.607965 5.496368 -6.132727 1.072335 5.176335 -6.126272 1.109477 10.822350 -10.101587 -17.510135 -14.614740 13.042044 -24.407199 175.470059 -78.404484 3.180462 34.360100 57.069886 47.907096 -72.319122 -10.067595 2.281285 11.421653 -7.710415 41.769893 -155.233214 74.401745 26.779384 13.565396 -63.417514 -55.112688 -58.657785 15.646148 -2.088975 6.940488 19.252889 -17.333123 
-14.423514 0.000000 -95.788658 0.000000 90.973985 0.000000 2.685705 88.479813 -0.896335 98.295493 -6.488981 179.336512 -177.132869 12.962596 -179.288395 -24.637232 -4.085766 -14.462355 91.657791 10.030367 1.627597 21.454560 0.003100 0.000017 159.853392 19.951710 -179.137024 -50.824553 -3.636558 0.507581 83.158584 1.269561 7.026208 21.454551 -0.003086 -0.000001 7.735079 -3.074972 0.660484 5.433359 -6.177311 1.178193 5.113304 -6.170202 1.215603 11.639898 -10.228235 -18.296492 -14.643461 13.563789 -25.378100 176.113108 -78.382931 2.525955 33.898187 55.102283 47.840864 -73.575651 -9.302903 2.281086 10.808212 -7.318644 47.625286 -155.112474 74.854327 26.893431 14.573005 -61.716467 -56.688833 -60.302476 15.317548 -2.131354 6.378295 17.022022 -19.491915 
